<?xml version="1.0" standalone="no"?>
<!DOCTYPE svg PUBLIC "-//W3C//DTD SVG 20010904//EN"
 "http://www.w3.org/TR/2001/REC-SVG-20010904/DTD/svg10.dtd">
<svg version="1.0" xmlns="http://www.w3.org/2000/svg"
 width="1080.000000pt" height="1080.000000pt" viewBox="0 0 1080.000000 1080.000000"
 preserveAspectRatio="xMidYMid meet">

<g transform="translate(0.000000,1080.000000) scale(0.100000,-0.100000)"
fill="#000000" stroke="none">
<path d="M8937 6233 c-4 -3 -7 -75 -7 -160 l0 -153 -77 1 c-69 1 -76 2 -58 15
10 8 24 14 31 14 7 0 15 4 19 10 6 10 -47 121 -102 212 l-34 57 -87 -30 c-48
-17 -90 -34 -94 -38 -4 -4 17 -55 47 -114 31 -60 53 -112 50 -117 -3 -5 -58
-9 -123 -9 l-117 1 -3 -91 -3 -91 188 0 188 0 28 -65 c15 -35 27 -69 27 -74 0
-7 -65 -12 -177 -13 l-178 -3 -3 -87 -3 -88 326 0 325 0 0 -45 0 -45 -275 0
-275 0 0 -80 0 -80 275 0 275 0 0 -40 0 -40 -365 0 -365 0 0 -95 0 -95 273 -2
272 -3 -105 -52 c-121 -59 -242 -103 -387 -142 l-102 -26 52 -66 c29 -36 61
-78 72 -93 l20 -28 56 16 c155 45 363 143 492 232 43 30 80 54 83 54 2 0 4
-74 4 -165 l0 -165 110 0 110 0 0 170 c0 94 2 170 4 170 3 0 42 -27 88 -60
103 -75 312 -181 436 -220 51 -17 99 -30 107 -30 8 0 21 13 29 28 8 15 39 60
70 100 52 68 54 72 33 77 -237 52 -327 80 -467 149 l-105 51 273 3 272 2 0 95
0 95 -370 0 -370 0 0 40 0 40 285 0 285 0 0 80 0 80 -285 0 -285 0 0 45 0 45
330 0 330 0 0 90 0 90 -184 0 -184 0 45 75 45 75 179 0 179 0 0 90 0 90 -114
0 c-63 0 -117 4 -120 9 -4 5 23 56 59 114 36 58 65 109 65 115 0 6 -41 20 -91
31 -50 12 -101 24 -114 27 -21 5 -25 -1 -50 -68 -16 -40 -41 -99 -56 -130 -33
-65 -35 -78 -15 -78 8 0 18 -4 21 -10 4 -6 -22 -10 -69 -10 l-76 0 0 161 0
160 -102 -2 -103 -2 -5 -156 -5 -156 -70 0 -70 0 -2 140 c-2 77 -3 148 -3 158
0 15 -11 17 -98 17 -54 0 -102 -3 -105 -7z m487 -550 c-15 -32 -28 -66 -31
-75 -5 -16 -22 -18 -174 -18 -145 0 -169 2 -169 15 0 9 -14 42 -30 75 l-30 60
230 0 230 0 -26 -57z"/>
<path d="M3065 6143 c-60 -14 -112 -27 -114 -29 -2 -2 6 -27 18 -56 20 -50
101 -320 97 -325 -5 -7 -219 -43 -308 -53 -57 -6 -108 -13 -114 -15 -8 -2 -2
-41 20 -124 17 -66 34 -122 37 -125 3 -3 100 14 214 39 115 24 211 42 213 41
5 -6 212 -779 238 -890 13 -54 25 -100 27 -102 4 -4 268 53 273 59 2 2 -14 57
-36 122 -63 196 -242 858 -233 865 8 8 556 121 561 116 4 -5 -88 -137 -140
-201 -28 -33 -85 -96 -129 -141 l-79 -81 122 -57 123 -58 33 39 c116 134 340
460 412 597 30 57 33 68 20 76 -8 4 -46 31 -85 60 -49 35 -76 49 -90 45 -31
-8 -799 -164 -811 -165 -11 0 -84 245 -101 340 -11 56 -18 57 -168 23z"/>
<path d="M4985 6053 c-27 -41 -58 -88 -68 -103 l-17 -27 137 -86 c76 -48 171
-109 212 -136 41 -28 78 -48 82 -45 6 4 112 156 133 191 5 9 -26 34 -95 79
-94 61 -327 204 -332 204 -1 0 -24 -35 -52 -77z"/>
<path d="M6550 5920 l0 -120 310 0 310 0 0 -495 0 -495 -365 0 -365 0 0 -110
0 -110 870 0 870 0 0 110 0 110 -375 0 -375 0 0 495 0 495 320 0 320 0 0 120
0 120 -760 0 -760 0 0 -120z"/>
<path d="M1814 5958 l-122 -39 64 -134 c155 -327 274 -651 360 -983 25 -97 47
-178 49 -180 1 -2 64 16 139 40 105 33 136 47 136 60 0 27 -157 499 -215 648
-81 207 -266 614 -282 623 -4 2 -63 -14 -129 -35z"/>
<path d="M1193 5883 c-26 -203 -112 -507 -202 -711 -49 -111 -156 -302 -218
-390 l-44 -62 43 -19 c24 -10 83 -35 132 -56 l88 -38 19 24 c38 50 141 239
193 354 95 211 164 430 236 751 22 98 38 179 37 180 -4 3 -249 54 -261 54 -7
0 -16 -33 -23 -87z"/>
<path d="M6021 5619 c-143 -219 -368 -433 -608 -580 -178 -108 -400 -195 -616
-240 -59 -12 -107 -26 -107 -29 0 -4 30 -60 67 -125 l66 -117 46 7 c88 13 347
106 486 174 335 165 640 419 833 692 l33 45 -72 127 c-39 70 -72 127 -73 127
-2 0 -26 -36 -55 -81z"/>
<path d="M4680 5600 c-33 -50 -63 -96 -66 -103 -3 -8 32 -35 93 -71 54 -33
149 -92 211 -132 62 -41 116 -74 120 -74 4 0 37 47 74 105 l67 104 -132 84
c-137 87 -289 177 -300 177 -4 0 -34 -41 -67 -90z"/>
</g>
</svg>
